<svg width="300" height="126" viewBox="0 0 300 126" fill="none" xmlns="http://www.w3.org/2000/svg">
<path d="M279.392 86.8288C280.038 86.2033 280.705 85.63 281.393 85.1088C282.102 84.5876 282.842 84.1394 283.614 83.7641C284.406 83.3889 285.25 83.097 286.147 82.8885C287.064 82.68 288.054 82.5758 289.117 82.5758C290.869 82.5758 292.422 82.8781 293.777 83.4827C295.132 84.0873 296.268 84.9316 297.186 86.0157C298.124 87.0998 298.822 88.3924 299.281 89.8934C299.76 91.3945 300 93.0415 300 94.8344V115.317H291.4V94.8344C291.4 93.0415 290.983 91.6551 290.149 90.6752C289.315 89.6745 288.085 89.1742 286.459 89.1742C285.25 89.1742 284.114 89.4348 283.051 89.956C281.987 90.4772 280.976 91.2068 280.017 92.145V115.317H271.386V83.0762H276.702C277.787 83.0762 278.506 83.5765 278.86 84.5772L279.392 86.8288Z" fill="#1B2C3A"/>
<path d="M251.707 82.5758C254.125 82.5758 256.324 82.9615 258.305 83.7329C260.286 84.5042 261.985 85.6092 263.402 87.0477C264.82 88.4653 265.915 90.1957 266.686 92.2388C267.457 94.2819 267.843 96.5856 267.843 99.1499C267.843 101.714 267.457 104.028 266.686 106.092C265.915 108.135 264.82 109.876 263.402 111.315C261.985 112.753 260.286 113.858 258.305 114.629C256.324 115.401 254.125 115.787 251.707 115.787C249.267 115.787 247.047 115.401 245.046 114.629C243.065 113.858 241.366 112.753 239.948 111.315C238.531 109.876 237.426 108.135 236.634 106.092C235.862 104.028 235.477 101.714 235.477 99.1499C235.477 96.5856 235.862 94.2819 236.634 92.2388C237.426 90.1957 238.531 88.4653 239.948 87.0477C241.366 85.6092 243.065 84.5042 245.046 83.7329C247.047 82.9615 249.267 82.5758 251.707 82.5758ZM251.707 109.313C254.167 109.313 255.991 108.469 257.179 106.78C258.368 105.071 258.962 102.538 258.962 99.1812C258.962 95.8455 258.368 93.3333 257.179 91.6446C255.991 89.9351 254.167 89.0804 251.707 89.0804C249.184 89.0804 247.329 89.9351 246.14 91.6446C244.952 93.3333 244.358 95.8455 244.358 99.1812C244.358 102.538 244.952 105.071 246.14 106.78C247.329 108.469 249.184 109.313 251.707 109.313Z" fill="#1B2C3A"/>
<path d="M231.676 83.0762V115.318H223.045V83.0762H231.676ZM232.708 73.9135C232.708 74.6432 232.562 75.3208 232.27 75.9462C231.978 76.5716 231.582 77.1241 231.082 77.6036C230.603 78.0831 230.029 78.4584 229.362 78.7294C228.716 79.0004 228.017 79.1359 227.267 79.1359C226.558 79.1359 225.88 79.0004 225.234 78.7294C224.609 78.4584 224.056 78.0831 223.577 77.6036C223.097 77.1241 222.712 76.5716 222.42 75.9462C222.149 75.3208 222.013 74.6432 222.013 73.9135C222.013 73.1839 222.149 72.5063 222.42 71.8809C222.712 71.2346 223.097 70.6717 223.577 70.1922C224.056 69.7127 224.609 69.3374 225.234 69.0664C225.88 68.7954 226.558 68.6599 227.267 68.6599C228.017 68.6599 228.716 68.7954 229.362 69.0664C230.029 69.3374 230.603 69.7127 231.082 70.1922C231.582 70.6717 231.978 71.2346 232.27 71.8809C232.562 72.5063 232.708 73.1839 232.708 73.9135Z" fill="#1B2C3A"/>
<path d="M197.191 86.8288C197.837 86.2033 198.504 85.63 199.192 85.1088C199.901 84.5876 200.641 84.1394 201.412 83.7641C202.205 83.3889 203.049 83.097 203.945 82.8885C204.863 82.68 205.853 82.5758 206.916 82.5758C208.667 82.5758 210.221 82.8781 211.576 83.4827C212.931 84.0873 214.067 84.9316 214.984 86.0157C215.923 87.0998 216.621 88.3924 217.08 89.8934C217.559 91.3945 217.799 93.0415 217.799 94.8344V115.317H209.199V94.8344C209.199 93.0415 208.782 91.6551 207.948 90.6752C207.114 89.6745 205.884 89.1742 204.258 89.1742C203.049 89.1742 201.913 89.4348 200.849 89.956C199.786 90.4772 198.775 91.2068 197.816 92.145V115.317H189.185V83.0762H194.501C195.585 83.0762 196.305 83.5765 196.659 84.5772L197.191 86.8288Z" fill="#1B2C3A"/>
<path d="M175.912 101.839C173.807 101.944 172.055 102.131 170.659 102.402C169.262 102.652 168.146 102.986 167.313 103.403C166.499 103.82 165.916 104.299 165.561 104.841C165.228 105.363 165.061 105.936 165.061 106.561C165.061 107.812 165.405 108.698 166.093 109.219C166.802 109.741 167.782 110.001 169.032 110.001C170.471 110.001 171.711 109.751 172.754 109.251C173.817 108.73 174.87 107.927 175.912 106.843V101.839ZM158.337 87.5481C160.235 85.8385 162.33 84.5668 164.623 83.7329C166.916 82.8781 169.397 82.4507 172.066 82.4507C173.984 82.4507 175.693 82.7635 177.194 83.3889C178.716 84.0143 179.998 84.89 181.041 86.0157C182.104 87.1207 182.917 88.4445 183.48 89.9873C184.043 91.53 184.324 93.2187 184.324 95.0533V115.317H180.384C179.571 115.317 178.946 115.203 178.508 114.973C178.091 114.744 177.747 114.265 177.476 113.535L176.788 111.471C175.975 112.18 175.183 112.805 174.411 113.347C173.661 113.889 172.879 114.348 172.066 114.723C171.253 115.078 170.377 115.349 169.439 115.536C168.522 115.724 167.49 115.818 166.343 115.818C164.925 115.818 163.633 115.63 162.465 115.255C161.298 114.88 160.287 114.327 159.432 113.598C158.598 112.847 157.952 111.919 157.493 110.814C157.035 109.709 156.805 108.438 156.805 106.999C156.805 105.811 157.107 104.623 157.712 103.434C158.317 102.246 159.349 101.172 160.808 100.213C162.288 99.2333 164.248 98.4307 166.687 97.8052C169.147 97.159 172.222 96.7941 175.912 96.7107V95.0533C175.912 93.0311 175.485 91.5509 174.63 90.6127C173.775 89.6537 172.545 89.1742 170.94 89.1742C169.752 89.1742 168.761 89.3201 167.969 89.612C167.177 89.883 166.479 90.1853 165.874 90.5189C165.29 90.8316 164.738 91.1339 164.217 91.4258C163.695 91.6968 163.091 91.8323 162.403 91.8323C161.798 91.8323 161.287 91.6864 160.871 91.3945C160.474 91.0818 160.141 90.7169 159.87 90.3L158.337 87.5481Z" fill="#1B2C3A"/>
<path d="M133.833 106.812C134.646 107.75 135.522 108.406 136.46 108.782C137.419 109.157 138.441 109.345 139.525 109.345C140.567 109.345 141.516 109.147 142.37 108.75C143.225 108.354 143.955 107.739 144.559 106.905C145.185 106.051 145.664 104.967 145.998 103.653C146.332 102.34 146.498 100.776 146.498 98.9623C146.498 97.1694 146.352 95.6475 146.06 94.3966C145.789 93.1457 145.393 92.1346 144.872 91.3632C144.372 90.5919 143.757 90.0394 143.027 89.7058C142.297 89.3514 141.484 89.1742 140.588 89.1742C139.066 89.1742 137.784 89.4765 136.741 90.0811C135.72 90.6648 134.75 91.53 133.833 92.6767V106.812ZM133.333 87.2979C133.979 86.5891 134.667 85.9428 135.397 85.359C136.126 84.7544 136.908 84.2437 137.742 83.8267C138.576 83.3889 139.473 83.0553 140.432 82.826C141.391 82.5758 142.433 82.4507 143.559 82.4507C145.289 82.4507 146.874 82.826 148.312 83.5765C149.771 84.3062 151.022 85.3799 152.065 86.7975C153.107 88.1943 153.92 89.9143 154.504 91.9574C155.088 94.0005 155.38 96.3355 155.38 98.9623C155.38 101.381 155.046 103.622 154.379 105.686C153.733 107.729 152.805 109.501 151.596 111.002C150.386 112.503 148.927 113.681 147.218 114.536C145.529 115.37 143.642 115.787 141.557 115.787C139.806 115.787 138.315 115.526 137.085 115.005C135.876 114.484 134.792 113.775 133.833 112.878V125.731H125.202V83.0762H130.518C131.602 83.0762 132.322 83.5765 132.676 84.5772L133.333 87.2979Z" fill="#1B2C3A"/>
<path d="M74.3076 115.317V83.0762H79.6238C80.7079 83.0762 81.4272 83.5765 81.7816 84.5772L82.2819 86.6724C82.8448 86.0887 83.4182 85.5466 84.0019 85.0463C84.6065 84.5459 85.2528 84.1185 85.9408 83.7641C86.6287 83.3889 87.3688 83.097 88.1611 82.8885C88.9741 82.68 89.8497 82.5758 90.7879 82.5758C92.7685 82.5758 94.405 83.1074 95.6976 84.1707C96.9902 85.2131 97.97 86.6099 98.6371 88.3611C99.1583 87.3396 99.7942 86.4639 100.545 85.7343C101.316 84.9837 102.15 84.3791 103.046 83.9205C103.964 83.4618 104.923 83.1283 105.923 82.9198C106.945 82.6905 107.967 82.5758 108.988 82.5758C110.802 82.5758 112.407 82.8468 113.804 83.3889C115.201 83.9309 116.368 84.7336 117.306 85.7968C118.265 86.8392 118.995 88.1213 119.495 89.6432C119.996 91.1651 120.246 92.8955 120.246 94.8344V115.317H111.615V94.8344C111.615 91.0609 109.999 89.1742 106.768 89.1742C106.038 89.1742 105.361 89.2993 104.735 89.5494C104.131 89.7788 103.589 90.1332 103.109 90.6127C102.65 91.0922 102.286 91.6863 102.015 92.3952C101.764 93.104 101.639 93.9171 101.639 94.8344V115.317H93.0082V94.8344C93.0082 92.7913 92.6017 91.3424 91.7886 90.4876C90.9964 89.612 89.8185 89.1742 88.2549 89.1742C87.2542 89.1742 86.3056 89.4139 85.4091 89.8934C84.5335 90.3521 83.71 90.9984 82.9387 91.8323V115.317H74.3076Z" fill="#1B2C3A"/>
<path d="M54.6281 82.5758C57.0464 82.5758 59.2459 82.9615 61.2264 83.7329C63.207 84.5042 64.9061 85.6092 66.3237 87.0477C67.7414 88.4653 68.8359 90.1957 69.6073 92.2388C70.3787 94.2819 70.7643 96.5856 70.7643 99.1499C70.7643 101.714 70.3787 104.028 69.6073 106.092C68.8359 108.135 67.7414 109.876 66.3237 111.315C64.9061 112.753 63.207 113.858 61.2264 114.629C59.2459 115.401 57.0464 115.787 54.6281 115.787C52.1888 115.787 49.9685 115.401 47.9671 114.629C45.9866 113.858 44.2875 112.753 42.8698 111.315C41.4522 109.876 40.3472 108.135 39.555 106.092C38.7836 104.028 38.3979 101.714 38.3979 99.1499C38.3979 96.5856 38.7836 94.2819 39.555 92.2388C40.3472 90.1957 41.4522 88.4653 42.8698 87.0477C44.2875 85.6092 45.9866 84.5042 47.9671 83.7329C49.9685 82.9615 52.1888 82.5758 54.6281 82.5758ZM54.6281 109.313C57.0881 109.313 58.9123 108.469 60.1006 106.78C61.289 105.071 61.8831 102.538 61.8831 99.1812C61.8831 95.8455 61.289 93.3333 60.1006 91.6446C58.9123 89.9351 57.0881 89.0804 54.6281 89.0804C52.1055 89.0804 50.25 89.9351 49.0617 91.6446C47.8733 93.3333 47.2792 95.8455 47.2792 99.1812C47.2792 102.538 47.8733 105.071 49.0617 106.78C50.25 108.469 52.1055 109.313 54.6281 109.313Z" fill="#1B2C3A"/>
<path d="M33.4922 104.153C34.0134 104.153 34.4512 104.341 34.8056 104.716L38.527 108.688C36.6924 111.023 34.4095 112.795 31.6784 114.004C28.9682 115.213 25.7368 115.818 21.9841 115.818C18.5859 115.818 15.5317 115.245 12.8215 114.098C10.1112 112.93 7.80755 111.315 5.91039 109.251C4.01323 107.187 2.55387 104.737 1.53232 101.902C0.510774 99.0665 0 95.9706 0 92.6141C0 90.3625 0.239751 88.2256 0.719254 86.2034C1.2196 84.1603 1.93886 82.284 2.87701 80.5744C3.81517 78.8649 4.94096 77.3222 6.25438 75.9462C7.58865 74.5702 9.0897 73.4028 10.7575 72.4438C12.4254 71.4639 14.2391 70.7238 16.1988 70.2234C18.1794 69.7022 20.285 69.4417 22.5158 69.4417C24.1836 69.4417 25.7576 69.5876 27.2378 69.8795C28.7389 70.1713 30.1357 70.5779 31.4282 71.0991C32.7208 71.6203 33.9092 72.2561 34.9932 73.0066C36.0982 73.7363 37.0885 74.539 37.9641 75.4146L34.8056 79.7301C34.618 80.0011 34.3782 80.2409 34.0864 80.4494C33.7945 80.6578 33.3984 80.7621 32.898 80.7621C32.3977 80.7621 31.8869 80.5849 31.3657 80.2305C30.8654 79.876 30.2399 79.4799 29.4894 79.0421C28.7597 78.6043 27.832 78.2082 26.7062 77.8538C25.6013 77.4994 24.194 77.3222 22.4845 77.3222C20.5873 77.3222 18.8465 77.6662 17.2621 78.3541C15.6776 79.0421 14.3121 80.0428 13.1655 81.3562C12.0397 82.6488 11.1641 84.2437 10.5386 86.1408C9.91319 88.038 9.60047 90.1958 9.60047 92.6141C9.60047 95.0533 9.93404 97.2319 10.6012 99.1499C11.2892 101.047 12.2169 102.652 13.3844 103.966C14.5727 105.279 15.9487 106.28 17.5123 106.968C19.0967 107.635 20.7854 107.969 22.5783 107.969C23.6415 107.969 24.6006 107.916 25.4553 107.812C26.3309 107.708 27.1336 107.531 27.8633 107.281C28.6138 107.03 29.3122 106.707 29.9585 106.311C30.6256 105.915 31.2927 105.415 31.9599 104.81C32.1892 104.623 32.4289 104.466 32.6791 104.341C32.9293 104.216 33.2003 104.153 33.4922 104.153Z" fill="#1B2C3A"/>
<path d="M222.556 17.5435C223.161 17.0015 223.786 16.5116 224.433 16.0737C225.1 15.6151 225.798 15.2294 226.528 14.9167C227.278 14.5831 228.071 14.3329 228.905 14.1662C229.759 13.9785 230.677 13.8847 231.656 13.8847C233.408 13.8847 234.961 14.187 236.316 14.7916C237.671 15.3962 238.807 16.2405 239.725 17.3246C240.663 18.4087 241.361 19.7013 241.82 21.2023C242.299 22.7034 242.539 24.3504 242.539 26.1433V46.6264H233.939V26.1433C233.939 24.3504 233.522 22.964 232.688 21.9841C231.855 20.9834 230.624 20.4831 228.998 20.4831C227.789 20.4831 226.653 20.7437 225.59 21.2649C224.526 21.7861 223.515 22.5158 222.556 23.4539V46.6264H213.925V0H222.556V17.5435Z" fill="#DA8E5D"/>
<path d="M208.898 21.5776C208.648 21.9112 208.398 22.1718 208.148 22.3594C207.898 22.5262 207.543 22.6096 207.085 22.6096C206.668 22.6096 206.261 22.4949 205.865 22.2656C205.49 22.0154 205.052 21.7548 204.552 21.4838C204.051 21.1919 203.457 20.9313 202.769 20.702C202.081 20.4518 201.226 20.3267 200.205 20.3267C198.912 20.3267 197.786 20.5665 196.827 21.046C195.889 21.5046 195.108 22.1718 194.482 23.0474C193.857 23.923 193.388 24.9862 193.075 26.2371C192.783 27.488 192.637 28.8952 192.637 30.4588C192.637 33.7528 193.294 36.2754 194.607 38.0266C195.941 39.7778 197.755 40.6534 200.048 40.6534C200.841 40.6534 201.518 40.5909 202.081 40.4658C202.665 40.3199 203.165 40.1427 203.582 39.9342C204.02 39.7257 204.395 39.4964 204.708 39.2462C205.021 38.996 205.313 38.7667 205.584 38.5582C205.875 38.3497 206.157 38.183 206.428 38.0579C206.72 37.9119 207.043 37.839 207.397 37.839C208.064 37.839 208.586 38.0891 208.961 38.5895L211.431 41.7167C210.514 42.7799 209.534 43.666 208.492 44.3748C207.449 45.0628 206.365 45.6152 205.24 46.0322C204.135 46.4283 203.009 46.6993 201.862 46.8453C200.716 47.0121 199.579 47.0954 198.454 47.0954C196.473 47.0954 194.597 46.7306 192.825 46.0009C191.053 45.2504 189.499 44.1663 188.165 42.7487C186.831 41.331 185.768 39.5902 184.975 37.5262C184.204 35.4623 183.818 33.1065 183.818 30.4588C183.818 28.103 184.162 25.914 184.85 23.8917C185.538 21.8695 186.549 20.1182 187.884 18.638C189.218 17.1578 190.865 16.0008 192.825 15.1669C194.805 14.3121 197.088 13.8847 199.673 13.8847C202.133 13.8847 204.291 14.2808 206.146 15.073C208.002 15.8653 209.67 17.0119 211.15 18.5129L208.898 21.5776Z" fill="#DA8E5D"/>
<path d="M175.184 47.1267C173.725 47.1267 172.433 46.9182 171.307 46.5013C170.181 46.0635 169.232 45.4484 168.461 44.6562C167.69 43.864 167.106 42.905 166.71 41.7792C166.314 40.6534 166.116 39.3817 166.116 37.964V20.5769H163.082C162.624 20.5769 162.227 20.4309 161.894 20.1391C161.581 19.8472 161.425 19.4094 161.425 18.8256V15.4483L166.585 14.5101L168.336 6.16053C168.565 5.22238 169.201 4.7533 170.243 4.7533H174.747V14.5727H183.065V20.5769H174.747V37.4011C174.747 38.2976 174.955 39.0064 175.372 39.5276C175.81 40.0488 176.425 40.3094 177.217 40.3094C177.634 40.3094 177.988 40.2677 178.28 40.1843C178.572 40.0801 178.822 39.9759 179.031 39.8716C179.239 39.7465 179.427 39.6423 179.594 39.5589C179.781 39.4547 179.969 39.4025 180.157 39.4025C180.407 39.4025 180.615 39.4651 180.782 39.5902C180.949 39.6944 181.116 39.882 181.282 40.1531L183.878 44.281C182.69 45.2191 181.345 45.9279 179.844 46.4074C178.343 46.8869 176.79 47.1267 175.184 47.1267Z" fill="#DA8E5D"/>
<path d="M153.214 26.7062C153.214 25.8097 153.089 24.955 152.839 24.1419C152.61 23.3288 152.234 22.6096 151.713 21.9841C151.192 21.3587 150.535 20.8688 149.743 20.5143C148.951 20.1391 148.002 19.9514 146.897 19.9514C144.833 19.9514 143.218 20.5352 142.05 21.7027C140.883 22.8702 140.122 24.538 139.767 26.7062H153.214ZM139.642 31.8348C139.913 34.8577 140.768 37.0676 142.207 38.4644C143.666 39.8612 145.563 40.5596 147.898 40.5596C149.086 40.5596 150.108 40.4241 150.963 40.1531C151.838 39.8612 152.599 39.5485 153.246 39.2149C153.913 38.8605 154.507 38.5478 155.028 38.2768C155.57 37.9849 156.102 37.839 156.623 37.839C157.29 37.839 157.811 38.0891 158.186 38.5895L160.688 41.7167C159.771 42.7799 158.76 43.666 157.655 44.3748C156.55 45.0628 155.403 45.6152 154.215 46.0322C153.027 46.4283 151.828 46.6993 150.619 46.8453C149.41 47.0121 148.242 47.0954 147.116 47.0954C144.865 47.0954 142.759 46.7306 140.799 46.0009C138.86 45.2504 137.161 44.1559 135.702 42.7174C134.263 41.258 133.127 39.4547 132.293 37.3073C131.459 35.16 131.042 32.6687 131.042 29.8334C131.042 27.6443 131.397 25.5804 132.106 23.6415C132.835 21.7027 133.878 20.014 135.233 18.5755C136.588 17.137 138.235 16.0008 140.174 15.1669C142.113 14.3121 144.302 13.8847 146.741 13.8847C148.805 13.8847 150.702 14.2183 152.432 14.8854C154.184 15.5317 155.685 16.4803 156.936 17.7311C158.207 18.982 159.187 20.5248 159.875 22.3594C160.584 24.1732 160.938 26.2475 160.938 28.5825C160.938 29.2288 160.907 29.7604 160.845 30.1774C160.782 30.5943 160.678 30.9279 160.532 31.1781C160.386 31.4282 160.188 31.6054 159.938 31.7097C159.688 31.7931 159.364 31.8348 158.968 31.8348H139.642Z" fill="#DA8E5D"/>
<path d="M119.895 19.7013C120.917 17.8667 122.095 16.4178 123.429 15.3545C124.763 14.2913 126.327 13.7596 128.12 13.7596C129.579 13.7596 130.768 14.1036 131.685 14.7916L131.122 21.1711C131.018 21.588 130.851 21.8799 130.622 22.0467C130.413 22.1926 130.121 22.2656 129.746 22.2656C129.412 22.2656 128.933 22.2239 128.307 22.1405C127.682 22.0363 127.098 21.9841 126.556 21.9841C125.764 21.9841 125.055 22.0988 124.43 22.3281C123.825 22.5575 123.283 22.8806 122.804 23.2976C122.324 23.7145 121.886 24.2253 121.49 24.8299C121.115 25.4345 120.761 26.1225 120.427 26.8938V46.6264H111.796V14.3851H116.893C117.769 14.3851 118.373 14.5414 118.707 14.8542C119.041 15.1669 119.28 15.7089 119.426 16.4803L119.895 19.7013Z" fill="#DA8E5D"/>
<path d="M101.168 47.1267C99.7085 47.1267 98.4159 46.9182 97.2901 46.5013C96.1643 46.0635 95.2157 45.4484 94.4444 44.6562C93.673 43.864 93.0893 42.905 92.6932 41.7792C92.297 40.6534 92.099 39.3817 92.099 37.964V20.5769H89.0656C88.607 20.5769 88.2108 20.4309 87.8773 20.1391C87.5646 19.8472 87.4082 19.4094 87.4082 18.8256V15.4483L92.5681 14.5101L94.3193 6.16053C94.5486 5.22238 95.1845 4.7533 96.2269 4.7533H100.73V14.5727H109.048V20.5769H100.73V37.4011C100.73 38.2976 100.939 39.0064 101.355 39.5276C101.793 40.0488 102.408 40.3094 103.201 40.3094C103.617 40.3094 103.972 40.2677 104.264 40.1843C104.556 40.0801 104.806 39.9759 105.014 39.8716C105.223 39.7465 105.41 39.6423 105.577 39.5589C105.765 39.4547 105.952 39.4025 106.14 39.4025C106.39 39.4025 106.599 39.4651 106.766 39.5902C106.932 39.6944 107.099 39.882 107.266 40.1531L109.861 44.281C108.673 45.2191 107.328 45.9279 105.827 46.4074C104.326 46.8869 102.773 47.1267 101.168 47.1267Z" fill="#DA8E5D"/>
<path d="M84.6359 9.94448C84.344 10.424 84.0417 10.7784 83.729 11.0077C83.4372 11.2162 83.0515 11.3204 82.572 11.3204C82.1133 11.3204 81.613 11.1641 81.0709 10.8514C80.5497 10.5178 79.9347 10.1634 79.2259 9.78812C78.517 9.41286 77.704 9.06887 76.7867 8.75615C75.8694 8.42258 74.7957 8.2558 73.5657 8.2558C71.3975 8.2558 69.7713 8.74573 68.6872 9.72558C67.6032 10.6846 67.0611 11.9459 67.0611 13.5095C67.0611 14.5102 67.353 15.3441 67.9367 16.0112C68.5413 16.6575 69.3231 17.2204 70.2821 17.6999C71.262 18.1794 72.3669 18.6068 73.5969 18.9821C74.827 19.3573 76.0883 19.7743 77.3808 20.2329C78.6734 20.6707 79.9347 21.1919 81.1647 21.7965C82.3948 22.4011 83.4893 23.1621 84.4483 24.0794C85.4281 24.9967 86.2099 26.1225 86.7937 27.4567C87.3983 28.7702 87.7006 30.3754 87.7006 32.2726C87.7006 34.3366 87.3357 36.2754 86.606 38.0892C85.8972 39.8821 84.8652 41.4561 83.5101 42.8112C82.155 44.1455 80.4768 45.1983 78.4754 45.9697C76.4948 46.7411 74.2432 47.1268 71.7206 47.1268C70.2821 47.1268 68.8436 46.9808 67.4051 46.6889C65.9874 46.3971 64.6115 45.9905 63.2772 45.4693C61.9638 44.9481 60.7233 44.3227 59.5559 43.593C58.3884 42.8634 57.3668 42.0503 56.4912 41.1538L59.2431 36.7132C59.4725 36.3797 59.7748 36.1086 60.15 35.9001C60.5253 35.6708 60.9214 35.5562 61.3384 35.5562C61.9012 35.5562 62.4954 35.7646 63.1209 36.1816C63.7463 36.5986 64.4655 37.0572 65.2786 37.5576C66.0917 38.0579 67.0298 38.5166 68.0931 38.9335C69.1772 39.3505 70.4697 39.559 71.9708 39.559C74.1598 39.559 75.8485 39.0586 77.0368 38.0579C78.246 37.0572 78.8506 35.5666 78.8506 33.586C78.8506 32.4394 78.5483 31.5117 77.9437 30.8028C77.36 30.094 76.5886 29.4998 75.6296 29.0203C74.6706 28.5408 73.5761 28.1343 72.3461 27.8007C71.116 27.4463 69.8547 27.0606 68.5622 26.6437C67.2696 26.2267 66.0083 25.7264 64.7783 25.1426C63.5482 24.5589 62.4537 23.7875 61.4947 22.8285C60.5357 21.8695 59.7539 20.6812 59.1493 19.2635C58.5656 17.8458 58.2737 16.0842 58.2737 13.9786C58.2737 12.2899 58.6073 10.6533 59.2744 9.06887C59.9415 7.48443 60.9214 6.07719 62.214 4.84717C63.5065 3.61714 65.091 2.62686 66.9673 1.87634C68.8645 1.12581 71.0326 0.750549 73.4718 0.750549C76.2029 0.750549 78.7255 1.17793 81.0396 2.0327C83.3746 2.86662 85.3447 4.0341 86.95 5.53515L84.6359 9.94448Z" fill="#DA8E5D"/>
</svg>
