<svg width="301" height="127" viewBox="0 0 301 127" fill="none" xmlns="http://www.w3.org/2000/svg">
<path d="M280.089 87.7117C280.735 87.0863 281.403 86.513 282.091 85.9918C282.799 85.4706 283.539 85.0223 284.311 84.6471C285.103 84.2718 285.947 83.9799 286.844 83.7715C287.761 83.563 288.751 83.4587 289.815 83.4587C291.566 83.4587 293.119 83.761 294.474 84.3656C295.829 84.9702 296.965 85.8146 297.883 86.8986C298.821 87.9827 299.519 89.2753 299.978 90.7764C300.458 92.2774 300.697 93.9244 300.697 95.7173V116.2H292.097V95.7173C292.097 93.9244 291.681 92.538 290.847 91.5582C290.013 90.5575 288.783 90.0571 287.157 90.0571C285.947 90.0571 284.811 90.3177 283.748 90.8389C282.685 91.3601 281.674 92.0898 280.715 93.0279V116.2H272.083V83.9591H277.4C278.484 83.9591 279.203 84.4594 279.557 85.4601L280.089 87.7117Z" fill="#DDDED7"/>
<path d="M252.404 83.4587C254.822 83.4587 257.022 83.8444 259.002 84.6158C260.983 85.3872 262.682 86.4921 264.1 87.9306C265.517 89.3483 266.612 91.0787 267.383 93.1218C268.155 95.1648 268.54 97.4685 268.54 100.033C268.54 102.597 268.155 104.911 267.383 106.975C266.612 109.018 265.517 110.759 264.1 112.198C262.682 113.636 260.983 114.741 259.002 115.512C257.022 116.284 254.822 116.669 252.404 116.669C249.965 116.669 247.744 116.284 245.743 115.512C243.762 114.741 242.063 113.636 240.646 112.198C239.228 110.759 238.123 109.018 237.331 106.975C236.56 104.911 236.174 102.597 236.174 100.033C236.174 97.4685 236.56 95.1648 237.331 93.1218C238.123 91.0787 239.228 89.3483 240.646 87.9306C242.063 86.4921 243.762 85.3872 245.743 84.6158C247.744 83.8444 249.965 83.4587 252.404 83.4587ZM252.404 110.196C254.864 110.196 256.688 109.352 257.877 107.663C259.065 105.954 259.659 103.421 259.659 100.064C259.659 96.7284 259.065 94.2163 257.877 92.5276C256.688 90.8181 254.864 89.9633 252.404 89.9633C249.881 89.9633 248.026 90.8181 246.838 92.5276C245.649 94.2163 245.055 96.7284 245.055 100.064C245.055 103.421 245.649 105.954 246.838 107.663C248.026 109.352 249.881 110.196 252.404 110.196Z" fill="#DDDED7"/>
<path d="M232.373 83.9591V116.2H223.742V83.9591H232.373ZM233.405 74.7965C233.405 75.5261 233.259 76.2037 232.968 76.8291C232.676 77.4546 232.28 78.007 231.779 78.4865C231.3 78.966 230.726 79.3413 230.059 79.6123C229.413 79.8834 228.715 80.0189 227.964 80.0189C227.255 80.0189 226.578 79.8834 225.931 79.6123C225.306 79.3413 224.754 78.966 224.274 78.4865C223.795 78.007 223.409 77.4546 223.117 76.8291C222.846 76.2037 222.71 75.5261 222.71 74.7965C222.71 74.0668 222.846 73.3892 223.117 72.7638C223.409 72.1175 223.795 71.5546 224.274 71.0751C224.754 70.5956 225.306 70.2203 225.931 69.9493C226.578 69.6783 227.255 69.5428 227.964 69.5428C228.715 69.5428 229.413 69.6783 230.059 69.9493C230.726 70.2203 231.3 70.5956 231.779 71.0751C232.28 71.5546 232.676 72.1175 232.968 72.7638C233.259 73.3892 233.405 74.0668 233.405 74.7965Z" fill="#DDDED7"/>
<path d="M197.888 87.7117C198.534 87.0863 199.201 86.513 199.889 85.9918C200.598 85.4706 201.338 85.0223 202.11 84.6471C202.902 84.2718 203.746 83.9799 204.643 83.7715C205.56 83.563 206.55 83.4587 207.613 83.4587C209.365 83.4587 210.918 83.761 212.273 84.3656C213.628 84.9702 214.764 85.8146 215.682 86.8986C216.62 87.9827 217.318 89.2753 217.777 90.7764C218.256 92.2774 218.496 93.9244 218.496 95.7173V116.2H209.896V95.7173C209.896 93.9244 209.479 92.538 208.645 91.5582C207.812 90.5575 206.582 90.0571 204.955 90.0571C203.746 90.0571 202.61 90.3177 201.547 90.8389C200.483 91.3601 199.472 92.0898 198.513 93.0279V116.2H189.882V83.9591H195.199C196.283 83.9591 197.002 84.4594 197.356 85.4601L197.888 87.7117Z" fill="#DDDED7"/>
<path d="M176.609 102.722C174.504 102.826 172.752 103.014 171.356 103.285C169.959 103.535 168.843 103.869 168.01 104.286C167.196 104.703 166.613 105.182 166.258 105.724C165.925 106.246 165.758 106.819 165.758 107.444C165.758 108.695 166.102 109.581 166.79 110.102C167.499 110.624 168.479 110.884 169.729 110.884C171.168 110.884 172.408 110.634 173.451 110.134C174.514 109.612 175.567 108.81 176.609 107.726V102.722ZM159.035 88.431C160.932 86.7215 163.027 85.4497 165.32 84.6158C167.613 83.7611 170.094 83.3337 172.763 83.3337C174.681 83.3337 176.39 83.6464 177.891 84.2718C179.413 84.8973 180.696 85.7729 181.738 86.8987C182.801 88.0036 183.614 89.3275 184.177 90.8702C184.74 92.413 185.021 94.1016 185.021 95.9362V116.2H181.081C180.268 116.2 179.643 116.086 179.205 115.856C178.788 115.627 178.444 115.148 178.173 114.418L177.485 112.354C176.672 113.063 175.88 113.688 175.108 114.23C174.358 114.772 173.576 115.231 172.763 115.606C171.95 115.961 171.074 116.232 170.136 116.419C169.219 116.607 168.187 116.701 167.04 116.701C165.622 116.701 164.33 116.513 163.162 116.138C161.995 115.763 160.984 115.21 160.129 114.48C159.295 113.73 158.649 112.802 158.19 111.697C157.732 110.592 157.502 109.321 157.502 107.882C157.502 106.694 157.804 105.505 158.409 104.317C159.014 103.129 160.046 102.055 161.505 101.096C162.985 100.116 164.945 99.3136 167.384 98.6882C169.844 98.0419 172.919 97.6771 176.609 97.5937V95.9362C176.609 93.914 176.182 92.4338 175.327 91.4956C174.472 90.5366 173.242 90.0571 171.637 90.0571C170.449 90.0571 169.458 90.2031 168.666 90.4949C167.874 90.766 167.176 91.0683 166.571 91.4018C165.987 91.7145 165.435 92.0168 164.914 92.3087C164.392 92.5797 163.788 92.7152 163.1 92.7152C162.495 92.7152 161.984 92.5693 161.568 92.2774C161.171 91.9647 160.838 91.5999 160.567 91.1829L159.035 88.431Z" fill="#DDDED7"/>
<path d="M134.531 107.694C135.344 108.633 136.219 109.289 137.158 109.665C138.117 110.04 139.138 110.228 140.222 110.228C141.265 110.228 142.213 110.029 143.068 109.633C143.923 109.237 144.652 108.622 145.257 107.788C145.882 106.934 146.362 105.849 146.695 104.536C147.029 103.223 147.196 101.659 147.196 99.8452C147.196 98.0523 147.05 96.5304 146.758 95.2795C146.487 94.0287 146.091 93.0175 145.57 92.2462C145.069 91.4748 144.454 90.9223 143.725 90.5888C142.995 90.2343 142.182 90.0571 141.285 90.0571C139.764 90.0571 138.481 90.3594 137.439 90.964C136.417 91.5478 135.448 92.413 134.531 93.5596V107.694ZM134.03 88.1808C134.677 87.472 135.365 86.8257 136.094 86.242C136.824 85.6374 137.606 85.1266 138.44 84.7096C139.274 84.2718 140.17 83.9383 141.129 83.7089C142.088 83.4588 143.13 83.3337 144.256 83.3337C145.987 83.3337 147.571 83.7089 149.01 84.4595C150.469 85.1891 151.72 86.2628 152.762 87.6805C153.805 89.0773 154.618 90.7972 155.201 92.8403C155.785 94.8834 156.077 97.2184 156.077 99.8452C156.077 102.264 155.743 104.505 155.076 106.569C154.43 108.612 153.502 110.384 152.293 111.885C151.084 113.386 149.625 114.564 147.915 115.419C146.226 116.253 144.34 116.67 142.255 116.67C140.504 116.67 139.013 116.409 137.783 115.888C136.574 115.367 135.49 114.658 134.531 113.761V126.614H125.9V83.9591H131.216C132.3 83.9591 133.019 84.4595 133.374 85.4602L134.03 88.1808Z" fill="#DDDED7"/>
<path d="M75.0046 116.2V83.9591H80.3209C81.405 83.9591 82.1242 84.4594 82.4786 85.4601L82.979 87.5554C83.5419 86.9716 84.1152 86.4296 84.6989 85.9292C85.3035 85.4289 85.9498 85.0015 86.6378 84.6471C87.3258 84.2718 88.0659 83.9799 88.8581 83.7715C89.6712 83.563 90.5468 83.4587 91.4849 83.4587C93.4655 83.4587 95.102 83.9904 96.3946 85.0536C97.6872 86.096 98.667 87.4928 99.3342 89.244C99.8554 88.2225 100.491 87.3469 101.242 86.6172C102.013 85.8667 102.847 85.2621 103.744 84.8034C104.661 84.3448 105.62 84.0112 106.621 83.8027C107.642 83.5734 108.664 83.4587 109.685 83.4587C111.499 83.4587 113.104 83.7298 114.501 84.2718C115.898 84.8138 117.065 85.6165 118.003 86.6797C118.962 87.7221 119.692 89.0043 120.193 90.5262C120.693 92.0481 120.943 93.7785 120.943 95.7173V116.2H112.312V95.7173C112.312 91.9438 110.696 90.0571 107.465 90.0571C106.735 90.0571 106.058 90.1822 105.432 90.4324C104.828 90.6617 104.286 91.0161 103.806 91.4956C103.347 91.9751 102.983 92.5693 102.712 93.2781C102.461 93.9869 102.336 94.8 102.336 95.7173V116.2H93.7052V95.7173C93.7052 93.6742 93.2987 92.2253 92.4856 91.3705C91.6934 90.4949 90.5155 90.0571 88.9519 90.0571C87.9512 90.0571 87.0026 90.2969 86.1062 90.7764C85.2305 91.235 84.4071 91.8813 83.6357 92.7152V116.2H75.0046Z" fill="#DDDED7"/>
<path d="M55.3253 83.4587C57.7437 83.4587 59.9431 83.8444 61.9237 84.6158C63.9042 85.3872 65.6034 86.4921 67.021 87.9306C68.4387 89.3483 69.5332 91.0787 70.3046 93.1218C71.0759 95.1648 71.4616 97.4685 71.4616 100.033C71.4616 102.597 71.0759 104.911 70.3046 106.975C69.5332 109.018 68.4387 110.759 67.021 112.198C65.6034 113.636 63.9042 114.741 61.9237 115.512C59.9431 116.284 57.7437 116.669 55.3253 116.669C52.8861 116.669 50.6658 116.284 48.6644 115.512C46.6839 114.741 44.9848 113.636 43.5671 112.198C42.1494 110.759 41.0445 109.018 40.2523 106.975C39.4809 104.911 39.0952 102.597 39.0952 100.033C39.0952 97.4685 39.4809 95.1648 40.2523 93.1218C41.0445 91.0787 42.1494 89.3483 43.5671 87.9306C44.9848 86.4921 46.6839 85.3872 48.6644 84.6158C50.6658 83.8444 52.8861 83.4587 55.3253 83.4587ZM55.3253 110.196C57.7854 110.196 59.6096 109.352 60.7979 107.663C61.9862 105.954 62.5804 103.421 62.5804 100.064C62.5804 96.7284 61.9862 94.2163 60.7979 92.5276C59.6096 90.8181 57.7854 89.9633 55.3253 89.9633C52.8027 89.9633 50.9473 90.8181 49.7589 92.5276C48.5706 94.2163 47.9764 96.7284 47.9764 100.064C47.9764 103.421 48.5706 105.954 49.7589 107.663C50.9473 109.352 52.8027 110.196 55.3253 110.196Z" fill="#DDDED7"/>
<path d="M34.1895 105.036C34.7107 105.036 35.1485 105.224 35.5029 105.599L39.2242 109.571C37.3896 111.906 35.1068 113.678 32.3757 114.887C29.6655 116.096 26.434 116.701 22.6814 116.701C19.2832 116.701 16.229 116.127 13.5187 114.981C10.8085 113.813 8.50481 112.198 6.60765 110.134C4.71049 108.07 3.25114 105.62 2.22959 102.785C1.20804 99.9495 0.697266 96.8536 0.697266 93.4971C0.697266 91.2455 0.937017 89.1086 1.41652 87.0863C1.91687 85.0432 2.63612 83.1669 3.57428 81.4574C4.51244 79.7478 5.63822 78.2051 6.95164 76.8291C8.28591 75.4532 9.78696 74.2857 11.4548 73.3267C13.1226 72.3468 14.9364 71.6067 16.8961 71.1064C18.8767 70.5852 20.9823 70.3246 23.213 70.3246C24.8809 70.3246 26.4549 70.4705 27.9351 70.7624C29.4361 71.0543 30.8329 71.4608 32.1255 71.982C33.4181 72.5032 34.6064 73.1391 35.6905 73.8896C36.7954 74.6193 37.7857 75.4219 38.6613 76.2975L35.5029 80.613C35.3152 80.8841 35.0755 81.1238 34.7836 81.3323C34.4918 81.5408 34.0956 81.645 33.5953 81.645C33.0949 81.645 32.5842 81.4678 32.063 81.1134C31.5626 80.759 30.9372 80.3629 30.1867 79.9251C29.457 79.4872 28.5292 79.0911 27.4035 78.7367C26.2985 78.3823 24.8913 78.2051 23.1818 78.2051C21.2846 78.2051 19.5438 78.5491 17.9593 79.2371C16.3749 79.9251 15.0094 80.9258 13.8627 82.2392C12.7369 83.5317 11.8613 85.1266 11.2359 87.0238C10.6105 88.9209 10.2977 91.0787 10.2977 93.4971C10.2977 95.9363 10.6313 98.1149 11.2984 100.033C11.9864 101.93 12.9141 103.535 14.0816 104.849C15.27 106.162 16.6459 107.163 18.2095 107.851C19.794 108.518 21.4826 108.852 23.2756 108.852C24.3388 108.852 25.2978 108.799 26.1526 108.695C27.0282 108.591 27.8308 108.414 28.5605 108.164C29.311 107.913 30.0095 107.59 30.6557 107.194C31.3229 106.798 31.99 106.298 32.6571 105.693C32.8865 105.505 33.1262 105.349 33.3764 105.224C33.6266 105.099 33.8976 105.036 34.1895 105.036Z" fill="#DDDED7"/>
<path d="M223.254 18.4265C223.858 17.8844 224.484 17.3945 225.13 16.9567C225.797 16.498 226.495 16.1123 227.225 15.7996C227.976 15.4661 228.768 15.2159 229.602 15.0491C230.457 14.8615 231.374 14.7676 232.354 14.7676C234.105 14.7676 235.658 15.0699 237.013 15.6745C238.368 16.2791 239.505 17.1235 240.422 18.2076C241.36 19.2916 242.058 20.5842 242.517 22.0853C242.997 23.5863 243.236 25.2333 243.236 27.0262V47.5093H234.637V27.0262C234.637 25.2333 234.22 23.8469 233.386 22.8671C232.552 21.8664 231.322 21.366 229.696 21.366C228.486 21.366 227.35 21.6266 226.287 22.1478C225.224 22.669 224.213 23.3987 223.254 24.3368V47.5093H214.623V0.882935H223.254V18.4265Z" fill="#DA8E5D"/>
<path d="M209.596 22.4605C209.345 22.7941 209.095 23.0547 208.845 23.2423C208.595 23.4091 208.241 23.4925 207.782 23.4925C207.365 23.4925 206.958 23.3778 206.562 23.1485C206.187 22.8983 205.749 22.6377 205.249 22.3667C204.749 22.0748 204.154 21.8142 203.466 21.5849C202.778 21.3347 201.924 21.2096 200.902 21.2096C199.61 21.2096 198.484 21.4494 197.525 21.9289C196.587 22.3876 195.805 23.0547 195.179 23.9303C194.554 24.8059 194.085 25.8692 193.772 27.12C193.48 28.3709 193.334 29.7781 193.334 31.3417C193.334 34.6357 193.991 37.1583 195.304 38.9095C196.639 40.6608 198.452 41.5364 200.746 41.5364C201.538 41.5364 202.216 41.4738 202.778 41.3487C203.362 41.2028 203.862 41.0256 204.279 40.8171C204.717 40.6086 205.093 40.3793 205.405 40.1291C205.718 39.879 206.01 39.6496 206.281 39.4412C206.573 39.2327 206.854 39.0659 207.125 38.9408C207.417 38.7949 207.74 38.7219 208.095 38.7219C208.762 38.7219 209.283 38.9721 209.658 39.4724L212.129 42.5996C211.211 43.6629 210.232 44.5489 209.189 45.2577C208.147 45.9457 207.063 46.4982 205.937 46.9151C204.832 47.3112 203.706 47.5823 202.56 47.7282C201.413 47.895 200.277 47.9784 199.151 47.9784C197.17 47.9784 195.294 47.6135 193.522 46.8839C191.75 46.1333 190.197 45.0492 188.862 43.6316C187.528 42.2139 186.465 40.4731 185.673 38.4092C184.901 36.3452 184.516 33.9894 184.516 31.3417C184.516 28.9859 184.86 26.7969 185.548 24.7746C186.236 22.7524 187.247 21.0012 188.581 19.521C189.915 18.0408 191.562 16.8837 193.522 16.0498C195.502 15.195 197.785 14.7676 200.37 14.7676C202.831 14.7676 204.988 15.1637 206.844 15.956C208.699 16.7482 210.367 17.8948 211.847 19.3959L209.596 22.4605Z" fill="#DA8E5D"/>
<path d="M175.882 48.0096C174.422 48.0096 173.13 47.8012 172.004 47.3842C170.878 46.9464 169.93 46.3314 169.158 45.5392C168.387 44.7469 167.803 43.7879 167.407 42.6621C167.011 41.5364 166.813 40.2646 166.813 38.847V21.4598H163.779C163.321 21.4598 162.925 21.3139 162.591 21.022C162.278 20.7301 162.122 20.2923 162.122 19.7086V16.3312L167.282 15.3931L169.033 7.04347C169.262 6.10531 169.898 5.63623 170.941 5.63623H175.444V15.4556H183.762V21.4598H175.444V38.2841C175.444 39.1805 175.652 39.8894 176.069 40.4106C176.507 40.9318 177.122 41.1924 177.914 41.1924C178.331 41.1924 178.686 41.1507 178.978 41.0673C179.269 40.963 179.52 40.8588 179.728 40.7546C179.937 40.6295 180.124 40.5252 180.291 40.4418C180.479 40.3376 180.666 40.2855 180.854 40.2855C181.104 40.2855 181.313 40.348 181.479 40.4731C181.646 40.5774 181.813 40.765 181.98 41.036L184.575 45.1639C183.387 46.1021 182.042 46.8109 180.541 47.2904C179.04 47.7699 177.487 48.0096 175.882 48.0096Z" fill="#DA8E5D"/>
<path d="M153.912 27.5891C153.912 26.6927 153.787 25.8379 153.537 25.0248C153.307 24.2117 152.932 23.4925 152.411 22.8671C151.89 22.2416 151.233 21.7517 150.441 21.3973C149.648 21.022 148.7 20.8344 147.595 20.8344C145.531 20.8344 143.915 21.4181 142.748 22.5856C141.58 23.7531 140.819 25.4209 140.465 27.5891H153.912ZM140.34 32.7177C140.611 35.7406 141.466 37.9505 142.904 39.3473C144.363 40.7442 146.261 41.4426 148.596 41.4426C149.784 41.4426 150.805 41.307 151.66 41.036C152.536 40.7441 153.297 40.4314 153.943 40.0979C154.61 39.7435 155.204 39.4307 155.726 39.1597C156.268 38.8678 156.799 38.7219 157.32 38.7219C157.988 38.7219 158.509 38.9721 158.884 39.4724L161.386 42.5996C160.468 43.6629 159.457 44.5489 158.352 45.2577C157.247 45.9457 156.101 46.4982 154.912 46.9151C153.724 47.3112 152.525 47.5823 151.316 47.7282C150.107 47.895 148.94 47.9784 147.814 47.9784C145.562 47.9784 143.457 47.6135 141.497 46.8839C139.558 46.1333 137.859 45.0388 136.4 43.6003C134.961 42.141 133.825 40.3376 132.991 38.1903C132.157 36.0429 131.74 33.5516 131.74 30.7163C131.74 28.5273 132.094 26.4633 132.803 24.5245C133.533 22.5856 134.575 20.8969 135.93 19.4584C137.286 18.0199 138.933 16.8837 140.871 16.0498C142.81 15.195 144.999 14.7676 147.438 14.7676C149.502 14.7676 151.4 15.1012 153.13 15.7683C154.881 16.4146 156.382 17.3632 157.633 18.6141C158.905 19.865 159.885 21.4077 160.573 23.2423C161.282 25.0561 161.636 27.1305 161.636 29.4654C161.636 30.1117 161.605 30.6433 161.542 31.0603C161.48 31.4772 161.375 31.8108 161.229 32.061C161.083 32.3112 160.885 32.4884 160.635 32.5926C160.385 32.676 160.062 32.7177 159.666 32.7177H140.34Z" fill="#DA8E5D"/>
<path d="M120.592 20.5842C121.614 18.7496 122.792 17.3007 124.126 16.2374C125.46 15.1742 127.024 14.6426 128.817 14.6426C130.276 14.6426 131.465 14.9866 132.382 15.6745L131.819 22.054C131.715 22.471 131.548 22.7628 131.319 22.9296C131.11 23.0756 130.818 23.1485 130.443 23.1485C130.109 23.1485 129.63 23.1068 129.004 23.0234C128.379 22.9192 127.795 22.8671 127.253 22.8671C126.461 22.8671 125.752 22.9817 125.127 23.2111C124.522 23.4404 123.98 23.7635 123.501 24.1805C123.021 24.5975 122.583 25.1082 122.187 25.7128C121.812 26.3174 121.458 27.0054 121.124 27.7768V47.5093H112.493V15.268H117.59C118.466 15.268 119.07 15.4244 119.404 15.7371C119.738 16.0498 119.977 16.5919 120.123 17.3632L120.592 20.5842Z" fill="#DA8E5D"/>
<path d="M101.865 48.0096C100.406 48.0096 99.1132 47.8012 97.9874 47.3842C96.8616 46.9464 95.913 46.3314 95.1416 45.5392C94.3703 44.7469 93.7865 43.7879 93.3904 42.6621C92.9943 41.5364 92.7962 40.2646 92.7962 38.847V21.4598H89.7629C89.3042 21.4598 88.9081 21.3139 88.5745 21.022C88.2618 20.7301 88.1055 20.2923 88.1055 19.7086V16.3312L93.2653 15.3931L95.0166 7.04347C95.2459 6.10531 95.8817 5.63623 96.9241 5.63623H101.427V15.4556H109.746V21.4598H101.427V38.2841C101.427 39.1805 101.636 39.8894 102.053 40.4106C102.491 40.9318 103.106 41.1924 103.898 41.1924C104.315 41.1924 104.669 41.1507 104.961 41.0673C105.253 40.963 105.503 40.8588 105.712 40.7546C105.92 40.6295 106.108 40.5252 106.274 40.4418C106.462 40.3376 106.65 40.2855 106.837 40.2855C107.088 40.2855 107.296 40.348 107.463 40.4731C107.63 40.5774 107.796 40.765 107.963 41.036L110.559 45.1639C109.37 46.1021 108.026 46.8109 106.525 47.2904C105.024 47.7699 103.47 48.0096 101.865 48.0096Z" fill="#DA8E5D"/>
<path d="M85.3334 10.8274C85.0415 11.3069 84.7393 11.6613 84.4265 11.8907C84.1347 12.0991 83.749 12.2034 83.2695 12.2034C82.8108 12.2034 82.3105 12.047 81.7684 11.7343C81.2472 11.4007 80.6322 11.0463 79.9234 10.6711C79.2146 10.2958 78.4015 9.95181 77.4842 9.63909C76.5669 9.30552 75.4932 9.13874 74.2632 9.13874C72.095 9.13874 70.4688 9.62866 69.3848 10.6085C68.3007 11.5675 67.7586 12.8288 67.7586 14.3924C67.7586 15.3931 68.0505 16.227 68.6342 16.8942C69.2388 17.5404 70.0206 18.1033 70.9796 18.5828C71.9595 19.0623 73.0644 19.4897 74.2944 19.865C75.5245 20.2403 76.7858 20.6572 78.0783 21.1159C79.3709 21.5537 80.6322 22.0749 81.8622 22.6795C83.0923 23.2841 84.1868 24.045 85.1458 24.9623C86.1256 25.8796 86.9074 27.0054 87.4912 28.3397C88.0958 29.6531 88.3981 31.2584 88.3981 33.1555C88.3981 35.2195 88.0332 37.1583 87.3036 38.9721C86.5947 40.765 85.5628 42.339 84.2076 43.6942C82.8525 45.0284 81.1743 46.0813 79.1729 46.8526C77.1923 47.624 74.9407 48.0097 72.4181 48.0097C70.9796 48.0097 69.5411 47.8637 68.1026 47.5719C66.685 47.28 65.309 46.8735 63.9747 46.3523C62.6613 45.8311 61.4209 45.2056 60.2534 44.476C59.0859 43.7463 58.0643 42.9332 57.1887 42.0368L59.9406 37.5962C60.17 37.2626 60.4723 36.9916 60.8475 36.7831C61.2228 36.5538 61.6189 36.4391 62.0359 36.4391C62.5988 36.4391 63.1929 36.6476 63.8184 37.0645C64.4438 37.4815 65.1631 37.9401 65.9761 38.4405C66.7892 38.9408 67.7273 39.3995 68.7906 39.8165C69.8747 40.2334 71.1673 40.4419 72.6683 40.4419C74.8573 40.4419 76.546 39.9415 77.7344 38.9408C78.9435 37.9401 79.5481 36.4495 79.5481 34.469C79.5481 33.3223 79.2458 32.3946 78.6412 31.6858C78.0575 30.9769 77.2861 30.3828 76.3271 29.9033C75.3681 29.4238 74.2736 29.0172 73.0436 28.6837C71.8135 28.3292 70.5522 27.9436 69.2597 27.5266C67.9671 27.1096 66.7058 26.6093 65.4758 26.0256C64.2457 25.4418 63.1512 24.6704 62.1922 23.7114C61.2332 22.7524 60.4514 21.5641 59.8468 20.1464C59.2631 18.7288 58.9712 16.9671 58.9712 14.8615C58.9712 13.1728 59.3048 11.5362 59.9719 9.95181C60.6391 8.36736 61.6189 6.96013 62.9115 5.7301C64.204 4.50007 65.7885 3.5098 67.6648 2.75927C69.562 2.00875 71.7301 1.63348 74.1694 1.63348C76.9004 1.63348 79.423 2.06087 81.7372 2.91563C84.0721 3.74955 86.0423 4.91703 87.6475 6.41808L85.3334 10.8274Z" fill="#DA8E5D"/>
</svg>
